<svg id="visual" viewBox="0 0 960 300" width="960" height="300" xmlns="http://www.w3.org/2000/svg" xmlns:xlink="http://www.w3.org/1999/xlink" version="1.1"><path d="M0 37L10.7 40.5C21.3 44 42.7 51 64 51.5C85.3 52 106.7 46 128 43.5C149.3 41 170.7 42 192 48.5C213.3 55 234.7 67 256 71.5C277.3 76 298.7 73 320 66C341.3 59 362.7 48 384 40.5C405.3 33 426.7 29 448 32C469.3 35 490.7 45 512 53.5C533.3 62 554.7 69 576 64C597.3 59 618.7 42 640 41.5C661.3 41 682.7 57 704 57C725.3 57 746.7 41 768 36C789.3 31 810.7 37 832 38C853.3 39 874.7 35 896 35.5C917.3 36 938.7 41 949.3 43.5L960 46L960 0L949.3 0C938.7 0 917.3 0 896 0C874.7 0 853.3 0 832 0C810.7 0 789.3 0 768 0C746.7 0 725.3 0 704 0C682.7 0 661.3 0 640 0C618.7 0 597.3 0 576 0C554.7 0 533.3 0 512 0C490.7 0 469.3 0 448 0C426.7 0 405.3 0 384 0C362.7 0 341.3 0 320 0C298.7 0 277.3 0 256 0C234.7 0 213.3 0 192 0C170.7 0 149.3 0 128 0C106.7 0 85.3 0 64 0C42.7 0 21.3 0 10.7 0L0 0Z" fill="#202731"></path><path d="M0 115L10.7 120.5C21.3 126 42.7 137 64 141.5C85.3 146 106.7 144 128 136.5C149.3 129 170.7 116 192 113C213.3 110 234.7 117 256 126C277.3 135 298.7 146 320 151.5C341.3 157 362.7 157 384 150.5C405.3 144 426.7 131 448 126.5C469.3 122 490.7 126 512 125C533.3 124 554.7 118 576 121C597.3 124 618.7 136 640 141C661.3 146 682.7 144 704 139C725.3 134 746.7 126 768 126C789.3 126 810.7 134 832 136C853.3 138 874.7 134 896 130C917.3 126 938.7 122 949.3 120L960 118L960 44L949.3 41.5C938.7 39 917.3 34 896 33.5C874.7 33 853.3 37 832 36C810.7 35 789.3 29 768 34C746.7 39 725.3 55 704 55C682.7 55 661.3 39 640 39.5C618.7 40 597.3 57 576 62C554.7 67 533.3 60 512 51.5C490.7 43 469.3 33 448 30C426.7 27 405.3 31 384 38.5C362.7 46 341.3 57 320 64C298.7 71 277.3 74 256 69.5C234.7 65 213.3 53 192 46.5C170.7 40 149.3 39 128 41.5C106.7 44 85.3 50 64 49.5C42.7 49 21.3 42 10.7 38.5L0 35Z" fill="#393a55"></path><path d="M0 154L10.7 157C21.3 160 42.7 166 64 166.5C85.3 167 106.7 162 128 158.5C149.3 155 170.7 153 192 151C213.3 149 234.7 147 256 152.5C277.3 158 298.7 171 320 177.5C341.3 184 362.7 184 384 175.5C405.3 167 426.7 150 448 148.5C469.3 147 490.7 161 512 162.5C533.3 164 554.7 153 576 154C597.3 155 618.7 168 640 174.5C661.3 181 682.7 181 704 175.5C725.3 170 746.7 159 768 158.5C789.3 158 810.7 168 832 167.5C853.3 167 874.7 156 896 153C917.3 150 938.7 155 949.3 157.5L960 160L960 116L949.3 118C938.7 120 917.3 124 896 128C874.7 132 853.3 136 832 134C810.7 132 789.3 124 768 124C746.7 124 725.3 132 704 137C682.7 142 661.3 144 640 139C618.7 134 597.3 122 576 119C554.7 116 533.3 122 512 123C490.7 124 469.3 120 448 124.5C426.7 129 405.3 142 384 148.5C362.7 155 341.3 155 320 149.5C298.7 144 277.3 133 256 124C234.7 115 213.3 108 192 111C170.7 114 149.3 127 128 134.5C106.7 142 85.3 144 64 139.5C42.7 135 21.3 124 10.7 118.5L0 113Z" fill="#644a73"></path><path d="M0 187L10.7 194.5C21.3 202 42.7 217 64 220.5C85.3 224 106.7 216 128 207.5C149.3 199 170.7 190 192 184.5C213.3 179 234.7 177 256 181.5C277.3 186 298.7 197 320 207C341.3 217 362.7 226 384 219.5C405.3 213 426.7 191 448 186C469.3 181 490.7 193 512 198.5C533.3 204 554.7 203 576 204.5C597.3 206 618.7 210 640 209C661.3 208 682.7 202 704 197C725.3 192 746.7 188 768 188C789.3 188 810.7 192 832 188C853.3 184 874.7 172 896 174C917.3 176 938.7 192 949.3 200L960 208L960 158L949.3 155.5C938.7 153 917.3 148 896 151C874.7 154 853.3 165 832 165.5C810.7 166 789.3 156 768 156.5C746.7 157 725.3 168 704 173.5C682.7 179 661.3 179 640 172.5C618.7 166 597.3 153 576 152C554.7 151 533.3 162 512 160.5C490.7 159 469.3 145 448 146.5C426.7 148 405.3 165 384 173.5C362.7 182 341.3 182 320 175.5C298.7 169 277.3 156 256 150.5C234.7 145 213.3 147 192 149C170.7 151 149.3 153 128 156.5C106.7 160 85.3 165 64 164.5C42.7 164 21.3 158 10.7 155L0 152Z" fill="#9a5585"></path><path d="M0 205L10.7 214.5C21.3 224 42.7 243 64 249.5C85.3 256 106.7 250 128 242.5C149.3 235 170.7 226 192 218C213.3 210 234.7 203 256 208C277.3 213 298.7 230 320 240.5C341.3 251 362.7 255 384 244.5C405.3 234 426.7 209 448 205C469.3 201 490.7 218 512 223.5C533.3 229 554.7 223 576 226C597.3 229 618.7 241 640 244C661.3 247 682.7 241 704 235C725.3 229 746.7 223 768 221.5C789.3 220 810.7 223 832 216.5C853.3 210 874.7 194 896 194C917.3 194 938.7 210 949.3 218L960 226L960 206L949.3 198C938.7 190 917.3 174 896 172C874.7 170 853.3 182 832 186C810.7 190 789.3 186 768 186C746.7 186 725.3 190 704 195C682.7 200 661.3 206 640 207C618.7 208 597.3 204 576 202.5C554.7 201 533.3 202 512 196.5C490.7 191 469.3 179 448 184C426.7 189 405.3 211 384 217.5C362.7 224 341.3 215 320 205C298.7 195 277.3 184 256 179.5C234.7 175 213.3 177 192 182.5C170.7 188 149.3 197 128 205.5C106.7 214 85.3 222 64 218.5C42.7 215 21.3 200 10.7 192.5L0 185Z" fill="#d16186"></path><path d="M0 301L10.7 301C21.3 301 42.7 301 64 301C85.3 301 106.7 301 128 301C149.3 301 170.7 301 192 301C213.3 301 234.7 301 256 301C277.3 301 298.7 301 320 301C341.3 301 362.7 301 384 301C405.3 301 426.7 301 448 301C469.3 301 490.7 301 512 301C533.3 301 554.7 301 576 301C597.3 301 618.7 301 640 301C661.3 301 682.7 301 704 301C725.3 301 746.7 301 768 301C789.3 301 810.7 301 832 301C853.3 301 874.7 301 896 301C917.3 301 938.7 301 949.3 301L960 301L960 224L949.3 216C938.7 208 917.3 192 896 192C874.7 192 853.3 208 832 214.5C810.7 221 789.3 218 768 219.5C746.7 221 725.3 227 704 233C682.7 239 661.3 245 640 242C618.7 239 597.3 227 576 224C554.7 221 533.3 227 512 221.5C490.7 216 469.3 199 448 203C426.7 207 405.3 232 384 242.5C362.7 253 341.3 249 320 238.5C298.7 228 277.3 211 256 206C234.7 201 213.3 208 192 216C170.7 224 149.3 233 128 240.5C106.7 248 85.3 254 64 247.5C42.7 241 21.3 222 10.7 212.5L0 203Z" fill="#ff7578"></path></svg>