<svg id="visual" viewBox="0 0 960 540" width="960" height="540" xmlns="http://www.w3.org/2000/svg" xmlns:xlink="http://www.w3.org/1999/xlink" version="1.1"><rect x="0" y="0" width="960" height="540" fill="#202731"></rect><path d="M0 131L22.8 135.8C45.7 140.7 91.3 150.3 137 149C182.7 147.7 228.3 135.3 274 124C319.7 112.7 365.3 102.3 411.2 104.8C457 107.3 503 122.7 548.8 131C594.7 139.3 640.3 140.7 686 138.7C731.7 136.7 777.3 131.3 823 129.2C868.7 127 914.3 128 937.2 128.5L960 129L960 0L937.2 0C914.3 0 868.7 0 823 0C777.3 0 731.7 0 686 0C640.3 0 594.7 0 548.8 0C503 0 457 0 411.2 0C365.3 0 319.7 0 274 0C228.3 0 182.7 0 137 0C91.3 0 45.7 0 22.8 0L0 0Z" fill="#2f3e46" stroke-linecap="round" stroke-linejoin="miter"></path></svg>