<svg id="visual" viewBox="0 0 960 300" width="960" height="300" xmlns="http://www.w3.org/2000/svg" xmlns:xlink="http://www.w3.org/1999/xlink" version="1.1"><rect x="0" y="0" width="960" height="300" fill="#202731"></rect><path d="M0 188L22.8 191.7C45.7 195.3 91.3 202.7 137 201C182.7 199.3 228.3 188.7 274 189.2C319.7 189.7 365.3 201.3 411.2 200.7C457 200 503 187 548.8 185C594.7 183 640.3 192 686 198.2C731.7 204.3 777.3 207.7 823 206.2C868.7 204.7 914.3 198.3 937.2 195.2L960 192L960 301L937.2 301C914.3 301 868.7 301 823 301C777.3 301 731.7 301 686 301C640.3 301 594.7 301 548.8 301C503 301 457 301 411.2 301C365.3 301 319.7 301 274 301C228.3 301 182.7 301 137 301C91.3 301 45.7 301 22.8 301L0 301Z" fill="#84a9ac"></path><path d="M0 209L22.8 213.3C45.7 217.7 91.3 226.3 137 226.5C182.7 226.7 228.3 218.3 274 212.2C319.7 206 365.3 202 411.2 201C457 200 503 202 548.8 202C594.7 202 640.3 200 686 201.2C731.7 202.3 777.3 206.7 823 207.5C868.7 208.3 914.3 205.7 937.2 204.3L960 203L960 301L937.2 301C914.3 301 868.7 301 823 301C777.3 301 731.7 301 686 301C640.3 301 594.7 301 548.8 301C503 301 457 301 411.2 301C365.3 301 319.7 301 274 301C228.3 301 182.7 301 137 301C91.3 301 45.7 301 22.8 301L0 301Z" fill="#6d8d93"></path><path d="M0 226L22.8 227.7C45.7 229.3 91.3 232.7 137 236C182.7 239.3 228.3 242.7 274 241.3C319.7 240 365.3 234 411.2 233.8C457 233.7 503 239.3 548.8 241.8C594.7 244.3 640.3 243.7 686 243C731.7 242.3 777.3 241.7 823 237.8C868.7 234 914.3 227 937.2 223.5L960 220L960 301L937.2 301C914.3 301 868.7 301 823 301C777.3 301 731.7 301 686 301C640.3 301 594.7 301 548.8 301C503 301 457 301 411.2 301C365.3 301 319.7 301 274 301C228.3 301 182.7 301 137 301C91.3 301 45.7 301 22.8 301L0 301Z" fill="#577179"></path><path d="M0 263L22.8 261.5C45.7 260 91.3 257 137 257.7C182.7 258.3 228.3 262.7 274 264.2C319.7 265.7 365.3 264.3 411.2 259.8C457 255.3 503 247.7 548.8 248.8C594.7 250 640.3 260 686 262C731.7 264 777.3 258 823 254.8C868.7 251.7 914.3 251.3 937.2 251.2L960 251L960 301L937.2 301C914.3 301 868.7 301 823 301C777.3 301 731.7 301 686 301C640.3 301 594.7 301 548.8 301C503 301 457 301 411.2 301C365.3 301 319.7 301 274 301C228.3 301 182.7 301 137 301C91.3 301 45.7 301 22.8 301L0 301Z" fill="#43575f"></path><path d="M0 265L22.8 266.2C45.7 267.3 91.3 269.7 137 272.5C182.7 275.3 228.3 278.7 274 277.2C319.7 275.7 365.3 269.3 411.2 266.7C457 264 503 265 548.8 266C594.7 267 640.3 268 686 270.7C731.7 273.3 777.3 277.7 823 279.3C868.7 281 914.3 280 937.2 279.5L960 279L960 301L937.2 301C914.3 301 868.7 301 823 301C777.3 301 731.7 301 686 301C640.3 301 594.7 301 548.8 301C503 301 457 301 411.2 301C365.3 301 319.7 301 274 301C228.3 301 182.7 301 137 301C91.3 301 45.7 301 22.8 301L0 301Z" fill="#2f3e46"></path></svg>