<svg id="visual" viewBox="0 0 960 300" width="960" height="300" xmlns="http://www.w3.org/2000/svg" xmlns:xlink="http://www.w3.org/1999/xlink" version="1.1"><rect x="0" y="0" width="960" height="300" fill="#202731"></rect><path d="M0 204L137 204L137 230L274 230L274 199L411 199L411 199L549 199L549 227L686 227L686 198L823 198L823 228L960 228L960 228L960 301L960 301L823 301L823 301L686 301L686 301L549 301L549 301L411 301L411 301L274 301L274 301L137 301L137 301L0 301Z" fill="#738296"></path><path d="M0 226L137 226L137 246L274 246L274 247L411 247L411 221L549 221L549 225L686 225L686 243L823 243L823 230L960 230L960 240L960 301L960 301L823 301L823 301L686 301L686 301L549 301L549 301L411 301L411 301L274 301L274 301L137 301L137 301L0 301Z" fill="#5d6e86"></path><path d="M0 245L137 245L137 247L274 247L274 244L411 244L411 254L549 254L549 255L686 255L686 248L823 248L823 267L960 267L960 261L960 301L960 301L823 301L823 301L686 301L686 301L549 301L549 301L411 301L411 301L274 301L274 301L137 301L137 301L0 301Z" fill="#475a76"></path><path d="M0 276L137 276L137 285L274 285L274 264L411 264L411 276L549 276L549 269L686 269L686 282L823 282L823 281L960 281L960 277L960 301L960 301L823 301L823 301L686 301L686 301L549 301L549 301L411 301L411 301L274 301L274 301L137 301L137 301L0 301Z" fill="#324766"></path></svg>