<svg id="visual" viewBox="0 0 960 300" width="960" height="300" xmlns="http://www.w3.org/2000/svg" xmlns:xlink="http://www.w3.org/1999/xlink" version="1.1"><rect x="0" y="0" width="960" height="300" fill="#202731"></rect><path d="M0 65L137 65L137 71L274 71L274 47L411 47L411 61L549 61L549 52L686 52L686 74L823 74L823 60L960 60L960 55L960 0L960 0L823 0L823 0L686 0L686 0L549 0L549 0L411 0L411 0L274 0L274 0L137 0L137 0L0 0Z" fill="#738296"></path><path d="M0 32L137 32L137 53L274 53L274 46L411 46L411 44L549 44L549 46L686 46L686 49L823 49L823 29L960 29L960 41L960 0L960 0L823 0L823 0L686 0L686 0L549 0L549 0L411 0L411 0L274 0L274 0L137 0L137 0L0 0Z" fill="#52647e"></path><path d="M0 15L137 15L137 32L274 32L274 16L411 16L411 20L549 20L549 25L686 25L686 17L823 17L823 22L960 22L960 18L960 0L960 0L823 0L823 0L686 0L686 0L549 0L549 0L411 0L411 0L274 0L274 0L137 0L137 0L0 0Z" fill="#324766"></path></svg>